<?xml version="1.0" encoding="utf-8"?>
<!-- Generator: Adobe Illustrator 16.0.0, SVG Export Plug-In . SVG Version: 6.00 Build 0)  -->
<!DOCTYPE svg PUBLIC "-//W3C//DTD SVG 1.1//EN" "http://www.w3.org/Graphics/SVG/1.1/DTD/svg11.dtd">
<svg version="1.1" id="Layer_1" xmlns="http://www.w3.org/2000/svg" xmlns:xlink="http://www.w3.org/1999/xlink" x="0px" y="0px"
	 width="678.667px" height="115.776px" viewBox="0 0 678.667 115.776" enable-background="new 0 0 678.667 115.776"
	 xml:space="preserve">
<polygon points="143.222,114.406 153.313,114.406 108.932,70.826 149.835,32.147 139.639,32.147 93.135,76.182 93.135,32.147 
	86.178,32.147 86.178,114.406 93.135,114.406 93.135,85.765 103.869,75.613 "/>
<path d="M230.108,114.406h7.651l-32.953-82.259h-7.489l-32.608,82.259h7.331l9.995-25.092h38.071L230.108,114.406z M184.807,82.357
	l16.257-40.813l16.269,40.813H184.807z"/>
<polygon points="339.793,114.406 334.228,32.147 327.01,32.147 298.377,104.9 269.683,32.147 262.547,32.147 256.968,114.406 
	263.925,114.406 268.455,47.815 294.638,114.406 302.118,114.406 328.3,47.815 332.836,114.406 "/>
<polygon points="510.912,32.147 502.243,32.147 474.749,69.047 447.283,32.147 438.586,32.147 471.269,76.024 471.269,114.389 
	478.225,114.389 478.225,76.024 "/>
<polygon points="374.562,107.399 374.562,75.57 420.651,75.57 420.651,68.613 374.562,68.613 374.562,39.079 423.608,39.079 
	423.608,32.122 367.605,32.122 367.605,114.356 424.477,114.356 424.477,107.399 "/>
<rect x="392.073" y="-1.311" transform="matrix(0.6869 0.7268 -0.7268 0.6869 131.8275 -284.0534)" width="6.957" height="24.535"/>
<g>
	<defs>
		<rect id="SVGID_1_" x="-61.333" y="-217.458" width="800" height="600"/>
	</defs>
	<clipPath id="SVGID_2_">
		<use xlink:href="#SVGID_1_"  overflow="visible"/>
	</clipPath>
	<path clip-path="url(#SVGID_2_)" d="M29.997,115.776c-8.955,0-18.238-1.877-28.381-5.735l2.497-6.422
		c9.332,3.55,17.798,5.275,25.884,5.275c16.899,0,25.741-9,25.741-17.892c0-8.594-8.924-11.504-23.622-15.278
		C18.079,72.122,2.167,68.037,2.167,52.467c0-13.358,11.704-21.333,31.308-21.333c8.863,0,17.505,1.71,25.687,5.082l-2.676,6.352
		c-7.329-3.021-15.072-4.552-23.011-4.552c-21.978,0-24.35,10.106-24.35,14.451c0,9.556,9.346,12.645,24.738,16.597
		c13.514,3.47,28.831,7.401,28.831,21.938C62.695,103.313,51.463,115.776,29.997,115.776"/>
	<polygon clip-path="url(#SVGID_2_)" points="584.601,114.406 594.692,114.406 550.311,70.826 591.213,32.147 581.018,32.147 
		534.513,76.182 534.513,32.147 527.556,32.147 527.556,114.406 534.513,114.406 534.513,85.765 545.249,75.613 	"/>
	<path clip-path="url(#SVGID_2_)" d="M670.709,114.406h7.651l-32.953-82.259h-7.489l-32.607,82.259h7.331l9.993-25.092h38.072
		L670.709,114.406z M625.408,82.357l16.257-40.813l16.27,40.813H625.408z"/>
</g>
</svg>
